<?xml version="1.0" encoding="UTF-8"?>
<svg width="369px" height="89px" viewBox="0 0 369 89" version="1.1" xmlns="http://www.w3.org/2000/svg" xmlns:xlink="http://www.w3.org/1999/xlink">
    <!-- Generator: Sketch 49.2 (51160) - http://www.bohemiancoding.com/sketch -->
    <title>EditVR Logo</title>
    <desc>Created with Sketch.</desc>
    <defs></defs>
    <g id="Page-1" stroke="none" stroke-width="1" fill="none" fill-rule="evenodd">
        <g id="Landing-Page" transform="translate(-320.000000, -156.000000)" fill="#FFFFFF">
            <path d="M323.092511,243.568365 C321.427313,243.568365 320,242.136729 320,240.466488 L320,163.158177 C320,161.487936 321.427313,160.0563 323.092511,160.0563 L376.854626,160.0563 C378.400881,160.0563 379.709251,161.368633 379.709251,162.919571 C379.709251,164.470509 378.400881,165.782842 376.854626,165.782842 L326.185022,165.782842 L326.185022,198.591153 L371.502203,198.591153 C373.048458,198.591153 374.356828,199.903485 374.356828,201.454424 C374.356828,203.005362 373.048458,204.317694 371.502203,204.317694 L326.185022,204.317694 L326.185022,237.841823 L377.449339,237.841823 C378.995595,237.841823 380.303965,239.154155 380.303965,240.705094 C380.303965,242.256032 378.995595,243.568365 377.449339,243.568365 L323.092511,243.568365 Z M450.797357,158.982574 L450.797357,241.063003 C450.797357,242.852547 449.60793,244.045576 447.942731,244.045576 C446.277533,244.045576 444.969163,242.852547 444.969163,241.063003 L444.969163,229.967828 C439.735683,237.961126 432.004405,245 419.991189,245 C405.361233,245 390.493392,233.189008 390.493392,213.384718 L390.493392,213.146113 C390.493392,193.341823 405.361233,181.292225 419.991189,181.292225 C432.123348,181.292225 439.973568,188.211796 444.969163,195.847185 L444.969163,158.982574 C444.969163,157.193029 446.15859,156 447.823789,156 C449.488987,156 450.797357,157.193029 450.797357,158.982574 Z M420.585903,186.899464 C407.38326,186.899464 396.797357,196.563003 396.797357,212.907507 L396.797357,213.146113 C396.797357,229.132708 407.859031,239.392761 420.585903,239.392761 C433.193833,239.392761 445.325991,228.774799 445.325991,213.265416 L445.325991,213.02681 C445.325991,197.398123 433.193833,186.899464 420.585903,186.899464 Z M469.07489,163.873995 L469.07489,161.845845 C469.07489,159.817694 470.621145,158.266756 472.643172,158.266756 C474.665198,158.266756 476.330396,159.817694 476.330396,161.845845 L476.330396,163.873995 C476.330396,165.902145 474.665198,167.453083 472.643172,167.453083 C470.621145,167.453083 469.07489,165.902145 469.07489,163.873995 Z M469.788546,241.063003 L469.788546,185.229223 C469.788546,183.558981 470.977974,182.246649 472.643172,182.246649 C474.30837,182.246649 475.61674,183.439678 475.61674,185.229223 L475.61674,241.063003 C475.61674,242.852547 474.427313,244.045576 472.762115,244.045576 C471.096916,244.045576 469.788546,242.852547 469.788546,241.063003 Z M514.828194,244.642091 C505.431718,244.642091 497.819383,239.512064 497.819383,227.939678 L497.819383,188.092493 L491.277533,188.092493 C489.85022,188.092493 488.54185,186.780161 488.54185,185.348525 C488.54185,183.91689 489.85022,182.723861 491.277533,182.723861 L497.819383,182.723861 L497.819383,165.782842 C497.819383,164.112601 499.008811,162.800268 500.674009,162.800268 C502.339207,162.800268 503.647577,164.112601 503.647577,165.782842 L503.647577,182.723861 L522.678414,182.723861 C524.105727,182.723861 525.414097,184.036193 525.414097,185.467828 C525.414097,186.899464 524.105727,188.092493 522.678414,188.092493 L503.647577,188.092493 L503.647577,227.343164 C503.647577,236.052279 508.762115,239.154155 515.779736,239.154155 C519.942731,239.154155 521.845815,237.961126 522.678414,237.961126 C523.986784,237.961126 525.295154,239.154155 525.295154,240.585791 C525.295154,241.77882 524.581498,242.613941 523.39207,243.091153 C521.013216,243.926273 518.277533,244.642091 514.828194,244.642091 Z M569.740088,244.880697 C564.744493,244.880697 561.295154,242.136729 559.39207,237.603217 L532.39207,172.821716 C531.797357,171.39008 531.321586,169.958445 531.321586,168.407507 C531.321586,163.27748 535.365639,159.340483 540.480176,159.340483 C545.237885,159.340483 548.330396,162.08445 549.757709,165.782842 L570.572687,219.827078 L591.625551,165.186327 C592.814978,162.203753 596.026432,159.340483 600.427313,159.340483 C605.422907,159.340483 609.46696,163.158177 609.46696,168.168901 C609.46696,169.600536 608.991189,171.151475 608.515419,172.225201 L581.277533,237.603217 C579.374449,242.136729 575.92511,244.880697 570.929515,244.880697 L569.740088,244.880697 Z M619.537445,235.097855 L619.537445,169.242627 C619.537445,164.112601 623.581498,160.0563 628.696035,160.0563 L657.599119,160.0563 C668.185022,160.0563 676.39207,163.038874 681.863436,168.52681 C686.502203,173.179625 689,179.741287 689,187.615282 C689,200.977212 682.45815,209.089812 672.348018,213.265416 L685.07489,228.774799 C686.859031,231.041555 688.048458,232.950402 688.048458,235.813673 C688.048458,240.9437 683.76652,244.284182 679.365639,244.284182 C675.202643,244.284182 672.46696,242.256032 670.325991,239.512064 L652.484581,216.844504 L637.854626,216.844504 L637.854626,235.097855 C637.854626,240.227882 633.810573,244.284182 628.696035,244.284182 C623.581498,244.284182 619.537445,240.227882 619.537445,235.097855 Z M671.682035,173.100089 L633.09306,173.100089 C631.653772,173.100089 630.440529,174.35383 630.440529,175.900014 L630.440529,198.933131 C630.440529,200.479316 631.653772,201.732797 633.150571,201.732797 L643.691682,201.732797 C644.821908,201.732797 645.790602,201.018478 646.197683,200.002672 L649.262797,192.354418 C649.77965,191.064768 651.009647,190.157466 652.444934,190.157466 C653.880221,190.157466 655.110217,191.064768 655.627071,192.354418 L658.692185,200.002672 C659.099266,201.018478 660.06796,201.732797 661.140675,201.732797 L671.682035,201.732797 C673.236096,201.732797 674.449339,200.479316 674.449339,198.933131 L674.449339,175.900014 C674.449339,174.35383 673.236096,173.100089 671.682035,173.100089 Z M642.535454,192.983914 C639.795574,192.983914 637.577093,190.670648 637.577093,187.813987 C637.577093,184.957327 639.795574,182.644325 642.535454,182.644325 C645.275079,182.644325 647.488987,184.957327 647.488987,187.813987 C647.488987,190.670648 645.270251,192.983914 642.535454,192.983914 Z M662.356828,192.983914 C659.618543,192.983914 657.400881,190.67064 657.400881,187.813987 C657.400881,184.957599 659.618543,182.644325 662.356828,182.644325 C665.095113,182.644325 667.312775,184.957599 667.312775,187.813987 C667.312775,190.67064 665.095113,192.983914 662.356828,192.983914 Z" id="EditVR-Logo"></path>
        </g>
    </g>
</svg>